<svg xmlns="http://www.w3.org/2000/svg" viewBox="0 0 21.29 21.76"><g id="Layer_2" data-name="Layer 2"><g id="Layer_1-2" data-name="Layer 1"><g id="Group_855" data-name="Group 855"><g id="smile"><path id="Path_815" data-name="Path 815" d="M10.65,21.76A10.76,10.76,0,0,1,0,10.88,10.77,10.77,0,0,1,10.65,0,10.76,10.76,0,0,1,21.29,10.88,10.77,10.77,0,0,1,10.65,21.76Z" style="fill:#ffd764"/><path id="Path_816" data-name="Path 816" d="M5.81,11.34A1.46,1.46,0,1,1,7.26,9.88h0A1.46,1.46,0,0,1,5.81,11.34Z" style="fill:#444"/><path id="Path_817" data-name="Path 817" d="M15.48,11.34a1.46,1.46,0,1,1,1.45-1.46h0A1.46,1.46,0,0,1,15.48,11.34Z" style="fill:#444"/><path id="Path_818" data-name="Path 818" d="M10.64,18.29a4.33,4.33,0,0,1-3.77-2.2.48.48,0,0,1,.83-.49h0a3.37,3.37,0,0,0,4.61,1.26,3.31,3.31,0,0,0,1.26-1.26.49.49,0,0,1,.66-.19.48.48,0,0,1,.19.66h0A4.34,4.34,0,0,1,10.64,18.29Z" style="fill:#444"/></g></g></g></g></svg>