<svg xmlns="http://www.w3.org/2000/svg" viewBox="0 0 39.4 39.46"><defs><style>.cls-1{fill:#eff9fe;}.cls-2{fill:#c8e9ec;}.cls-3{fill:#a4dae0;}.cls-4{fill:#82adb2;}.cls-5{fill:#fff;}.cls-6{fill:#50b848;}</style></defs><g id="Layer_2" data-name="Layer 2"><g id="Layer_1-2" data-name="Layer 1"><path class="cls-1" d="M39.4,19.76a19.84,19.84,0,0,1-1.23,6.88c-.24.62-.5,1.23-.79,1.82A19.71,19.71,0,0,1,2,28.46c-.28-.56-.53-1.14-.76-1.74a19.8,19.8,0,0,1-1.26-7,18.84,18.84,0,0,1,.28-3.3A14.38,14.38,0,0,1,.59,15,19.71,19.71,0,0,1,19.7.06h.17a5,5,0,0,1,.67,0,19.35,19.35,0,0,1,9.68,3,19.68,19.68,0,0,1,8.57,11.77c.13.52.24,1,.33,1.58A18.84,18.84,0,0,1,39.4,19.76Z"/><path class="cls-2" d="M39.12,16.46H.28A14.38,14.38,0,0,1,.59,15a19.67,19.67,0,0,1,9-12.1,8.76,8.76,0,0,0,3.15.58A8.69,8.69,0,0,0,19.4.36a1.12,1.12,0,0,1,.47-.29.78.78,0,0,1,.67,0,.69.69,0,0,1,.26.17l.1.1a9.05,9.05,0,0,0,6.8,3.1,9.13,9.13,0,0,0,2.52-.35,19.68,19.68,0,0,1,8.57,11.77C38.92,15.4,39,15.92,39.12,16.46Z"/><path class="cls-3" d="M39.4,19.76a19.84,19.84,0,0,1-1.23,6.88c-.24.62-.5,1.23-.79,1.82H2c-.28-.56-.53-1.14-.76-1.74a19.8,19.8,0,0,1-1.26-7,18.84,18.84,0,0,1,.28-3.3A14.38,14.38,0,0,1,.59,15,9.3,9.3,0,0,0,4.5,12.36a.91.91,0,0,1,.7-.3.78.78,0,0,1,.7.3,9,9,0,0,0,12.7.8,6,6,0,0,0,.8-.8,1,1,0,0,1,1.4-.1l.1.1a9,9,0,0,0,12.7.8c.1-.1.3-.2.4-.4a1,1,0,0,1,1.4,0,8.67,8.67,0,0,0,3.39,2.12c.13.52.24,1,.33,1.58A18.84,18.84,0,0,1,39.4,19.76Z"/><path class="cls-4" d="M38.17,26.64c-.24.62-.5,1.23-.79,1.82A19.71,19.71,0,0,1,2,28.46c-.28-.56-.53-1.14-.76-1.74A9.35,9.35,0,0,0,4.5,24.36a.91.91,0,0,1,.7-.3.78.78,0,0,1,.7.3,9,9,0,0,0,12.7.8,6,6,0,0,0,.8-.8,1.09,1.09,0,0,1,1.5,0,9,9,0,0,0,12.7.8c.1-.1.3-.2.4-.4a1,1,0,0,1,1.4,0A8.67,8.67,0,0,0,38.17,26.64Z"/><path class="cls-5" d="M19.64,2.06h.41l.31,0h.1A17.72,17.72,0,0,1,36.85,15.36c.12.49.22.95.3,1.44a16.65,16.65,0,0,1,.25,3,17.6,17.6,0,0,1-1.1,6.15c-.23.62-.47,1.16-.71,1.66a17.71,17.71,0,0,1-31.78,0c-.24-.48-.46-1-.68-1.55A17.77,17.77,0,0,1,2,19.76a17.24,17.24,0,0,1,.25-3c.08-.48.17-.9.28-1.31A17.7,17.7,0,0,1,19.64,2.06m.06-2A19.71,19.71,0,0,0,.59,15a14.38,14.38,0,0,0-.31,1.48A18.84,18.84,0,0,0,0,19.76a19.8,19.8,0,0,0,1.26,7c.23.6.48,1.18.76,1.74a19.71,19.71,0,0,0,35.36,0c.29-.59.55-1.2.79-1.82a19.84,19.84,0,0,0,1.23-6.88,18.84,18.84,0,0,0-.28-3.3c-.09-.54-.2-1.06-.33-1.58A19.68,19.68,0,0,0,30.22,3.11a19.35,19.35,0,0,0-9.68-3,3.91,3.91,0,0,0-.49,0H19.7Z"/><path class="cls-6" d="M19.71,1.05l.1,0h.24l.4,0h.05a18.69,18.69,0,0,1,17.32,14c.13.51.23,1,.32,1.51a18.53,18.53,0,0,1,.26,3.13,18.73,18.73,0,0,1-1.16,6.51c-.25.65-.5,1.22-.76,1.74A18.71,18.71,0,0,1,2.91,28c-.25-.51-.48-1.05-.71-1.65A18.58,18.58,0,0,1,1,19.76a17.93,17.93,0,0,1,.27-3.15,12.1,12.1,0,0,1,.29-1.39A18.77,18.77,0,0,1,10.07,3.73,18.58,18.58,0,0,1,19.7,1.06h0m0-1A19.71,19.71,0,0,0,.59,15a14.38,14.38,0,0,0-.31,1.48A18.84,18.84,0,0,0,0,19.76a19.8,19.8,0,0,0,1.26,7c.23.6.48,1.18.76,1.74a19.71,19.71,0,0,0,35.36,0c.29-.59.55-1.2.79-1.82a19.84,19.84,0,0,0,1.23-6.88,18.84,18.84,0,0,0-.28-3.3c-.09-.54-.2-1.06-.33-1.58A19.68,19.68,0,0,0,30.22,3.11a19.35,19.35,0,0,0-9.68-3,3.91,3.91,0,0,0-.49,0H19.7Z"/></g></g></svg>