<svg xmlns="http://www.w3.org/2000/svg" xmlns:xlink="http://www.w3.org/1999/xlink" viewBox="0 0 48.22 39.46"><defs><style>.cls-1{fill:#e59c33;}.cls-2{fill:url(#radial-gradient);}</style><radialGradient id="radial-gradient" cx="-113.85" cy="-37.86" r="0.9" gradientUnits="userSpaceOnUse"><stop offset="0" stop-color="#ffcc41"/><stop offset="1" stop-color="#ffd664"/></radialGradient></defs><g id="Layer_2" data-name="Layer 2"><g id="Layer_1-2" data-name="Layer 1"><path class="cls-1" d="M36.09,18.77l10.72-6a.62.62,0,0,1,.89.76L41.42,30.2a3.46,3.46,0,0,1-3.24,2.24H10A3.46,3.46,0,0,1,6.8,30.2L.53,13.53a.62.62,0,0,1,.89-.76l10.71,6a1.83,1.83,0,0,0,2.49-.71l9-16.18a.62.62,0,0,1,1.09,0l9,16.18A1.82,1.82,0,0,0,36.09,18.77ZM41,38.11V36.59a1.34,1.34,0,0,0-1.34-1.34H8.59a1.34,1.34,0,0,0-1.34,1.34v1.52a1.35,1.35,0,0,0,1.34,1.35H39.68A1.35,1.35,0,0,0,41,38.11Z"/><path class="cls-2" d="M36.34,17.57l10.93-6.13a.64.64,0,0,1,.91.78l-6.4,17a3.54,3.54,0,0,1-3.31,2.28H9.76a3.53,3.53,0,0,1-3.31-2.28L0,12.22A.64.64,0,0,1,1,11.44l10.94,6.13a1.86,1.86,0,0,0,2.53-.72L23.55.33a.64.64,0,0,1,1.12,0L33.8,16.85A1.87,1.87,0,0,0,36.34,17.57Zm5,19.74V35.75A1.37,1.37,0,0,0,40,34.38H8.27A1.37,1.37,0,0,0,6.9,35.75v1.56a1.38,1.38,0,0,0,1.37,1.37H40A1.38,1.38,0,0,0,41.37,37.31Z"/></g></g></svg>