<svg height="40" viewBox="0 0 26 40" width="26" xmlns="http://www.w3.org/2000/svg"><path d="m7.78986 38.1558v-1.84l-.28059-.0968c-.3853-.1348-1.18101-.4885-1.56211-.6948-2.2238-1.2126-3.77334-3.061-4.33453-5.1705-.18846-.7074-.2429-1.2042-.2429-2.1432 0-1.2716.14658-2.2063.49837-3.1494.85015-2.2779 2.58396-3.7979 5.51553-4.8127l.40623-.1431v-5.9495c0-5.07369-.00838-5.94948-.05863-5.93264-.15077.05895-.8334.51789-1.13913.7621-1.54535 1.24634-2.48764 3.06524-2.70541 5.21684-.04188.3958-.06282.4926-.11726.4926-.03351 0-.59888-.0379-1.25639-.0842-.65751-.0421-1.44903-.0926-1.758938-.1052-.8375901-.0379-.7705829 0-.7370793-.4337.2219613-2.8463 1.4071473-5.4737 3.3084773-7.3516 1.10981-1.09053 2.52115-2 4.02462-2.58947l.4188-.16421.01256-1.98316.00838-1.98316h1.50766 1.50768v1.63368 1.63369l.3057-.04211c.3602-.05052 3.2959-.05894 3.9367-.01263l.4481.03369v-1.62527-1.62105h1.5076 1.5077l.0084 1.92.0126 1.92.4606.16c2.3411.80421 4.0875 2.09684 5.2685 3.89474.5612.85895 1.047 2.06737 1.2605 3.13686.1508.7579.1927 1.2337.1927 2.1726 0 .7369-.0126.88-.1089 1.3137-.7036 3.1663-2.9023 5.3768-6.6128 6.661l-.4606.16-.0126 5.12c-.0042 2.8169.0042 5.1201.0209 5.1201.067 0 .5235-.3832.8502-.7158.9506-.96 1.4909-2.2442 1.583-3.7432l.0293-.4421.5235.0168c.289.0042 1.1517.0253 1.9223.0379l1.3988.0253-.0084.3579c-.0042.1979-.0377.5937-.0712.8842-.3141 2.56-1.449 4.6737-3.3755 6.2863-.6324.5305-1.6961 1.1748-2.5546 1.5453l-.3267.1431v2.0127 2.0126h-1.5077-1.5076v-1.6126-1.6127l-.4272.0548c-.7706.0926-2.1233.16-3.2038.1558h-1.0595v1.5073 1.5074h-1.50768-1.50766zm5.82964-5.1032c.7203-.0421 1.0637-.08 1.6165-.1726l.2597-.0463v-5.3558-5.36l-.6366.1389c-.8418.1811-1.0218.2232-1.7924.4464-.356.1052-1.0135.2821-1.4532.3915l-.8083.2021v4.8758 4.8716l.2638.0253c.1424.0126.3267.0337.4063.0421.1968.0252 1.2354-.0042 2.1442-.059zm-5.82964-4.8842v-3.9158l-.15496.0632c-.08794.0379-.3099.1516-.49417.261-.99255.5769-1.53698 1.2632-1.78826 2.2653-.08376.3368-.09632.48-.09632 1.3263v.9474l.14239.4084c.3141.9179 1.03023 1.76 2.0144 2.3705.17171.1053.32666.1895.34341.1895.01676 0 .03351-1.7642.03351-3.9158zm3.65194-9.0316c.3057-.0842.7747-.2147 1.0386-.2947.2638-.08.9716-.2526 1.5704-.3789.5989-.1306 1.1685-.2569 1.269-.2821l.1759-.0422v-5.4863-5.48207l-.1215-.02527c-.624-.12631-3.3922-.13894-4.1921-.02105l-.356.05474-.0125 6.05475c-.0042 3.7095.0083 6.0505.0293 6.0505.0209 0 .2889-.0674.5989-.1474zm7.89-2.3157c.7204-.3958 1.4114-.9811 1.8009-1.52.2345-.3285.5318-.9558.6407-1.3643.1089-.3915.1173-1.1536.021-1.7979-.2639-1.7894-1.1852-3.061-2.8813-3.97048l-.4021-.21895v4.63583 4.6358l.2429-.1095c.1298-.059.3937-.1895.5779-.2905z" transform="matrix(1 0 0 -1 0 40)"/></svg>