<svg height="40" viewBox="0 0 36 40" width="36" xmlns="http://www.w3.org/2000/svg"><path d="m7.25985 20.3427c-.37833-.3039-.72923-.5873-1.05322-.849.04222.3398.0839.7192.12612 1.1398.15407.8136.58887 1.5107 1.30491 2.0932.23007.1879.3604.429.391.7234.03061.2945-.04801.5572-.23586.7878s-.429.361-.72343.3905c-.29391.0306-.55669-.0485-.78834-.2353-1.16244-.9451-1.85369-2.0864-2.0732-3.4235-.00422-.0264-.00738-.0512-.01002-.0744-.11873-1.1867-.23587-2.022-.35195-2.5064-.06491-.2702-.03167-.5251.09972-.7652-.71709-.62-1.31547-1.1872-1.79564-1.7022.01055.5023.04854 1.0073.11292 1.5144.20631 1.6294.51922 3.2779.93977 4.9448.40578 1.5877 1.20572 3.2066 2.39983 4.8571 1.2474 1.7218 2.31012 3.0457 3.18763 3.9723 1.14134 1.1318 1.56871 2.8499 1.28221 5.1548-.0586.4712.0707.8231.3873 1.0563.5768.3246 1.4843.4639 2.7228.4169 2.7143-.1034 4.4223-.3799 5.1252-.83.371-.3599.4543-.9224.2522-1.6891v.0032c-.2881-1.0838-.4633-1.8912-.5261-2.4225-.0722-.0259-.144-.0517-.2163-.0771-.0338-.0126-.0675-.0269-.1003-.0422-2.0853-.9872-3.8899-2.5449-5.4128-4.673-.5725-.8005-1.1809-1.7888-1.8246-2.9644v.0032c-.1868-.3393-.7377-1.392-1.65373-3.1587l.00316.0037c-.23481-.4068-.76564-.9635-1.59249-1.67zm13.57425-16.31279c-.1119.55035-.1388 1.12129-.0808 1.71175.0992.47542.4976 1.05164 1.1984 1.72758.1831.13033.3609.26489.5329.40366l-.0063-.00633c.3609.28547.7419.62739 1.1429 1.02684-.6295-1.25057-1.1709-2.51697-1.6242-3.79814-.2722-.76934-.5318-1.33869-.7788-1.70806-.1942.18363-.3219.39997-.3847.6485v-.0058zm7.6216 14.21059c-.3193-.5984-.676-1.2131-1.0685-1.8442-.6512-.7034-1.3007-1.4289-1.9477-2.1766l-.0095-.0101c-1.098-1.3043-1.8779-2.2167-2.3386-2.7385l-.0031-.0032c-.7124-.8089-1.3614-1.4469-1.9477-1.91544l-.0063-.00633c-.143-.11503-.2907-.2269-.4422-.33612-.0163-.01056-.0332-.02111-.0485-.03272l-.0333-.02269c-.5524-.38203-1.1635-.72079-1.8341-1.01734l-.0037-.00316c-.6126-.26911-2.5766-1.41837-5.8909-3.44936-2.174-1.33394-3.53694-2.14127-4.08887-2.42251-.00211.05382-.00317.11186-.00317.17465.00422.06544.02058.17783.04855.33613v.00316c.05118.15092.20895.44272.47489.87487.47965.3108.9973.64798 1.5535 1.01101l.0031.00317c1.9624 1.28909 4.5569 3.02669 7.7831 5.21281.2454.16777.3963.39737.4522.68807.0554.2908 0 .5588-.1678.8042-.1662.2469-.3947.3984-.6844.4553-.2912.056-.5604.0016-.8078-.1651-3.2156-2.18033-5.8012-3.91371-7.75725-5.19963l.00316.00316c-.62423-.40683-1.19991-.78042-1.72758-1.12023-.00633-.00475-.01266-.00897-.01952-.01267-.0095-.00633-.019-.01213-.02902-.01952-1.99827-1.27801-3.2061-2.01305-3.62348-2.20617-.00212.0839-.00317.18415-.00317.30024.00369.09762.02322.22795.05804.39047.00211.0095.00422.01689.00633.02269.0591.16727.3013.59838.7266 1.29173 1.03845.70127 2.46948 1.75185 4.29204 3.1528 2.33915 1.79463 4.51155 3.51583 6.51775 5.16373.229.1884.3577.4295.3873.7234.029.2955-.0507.5578-.239.7884-.1884.2295-.4296.3588-.7235.3873-.2944.029-.5572-.0512-.7878-.239-1.9903-1.6337-4.1453-3.3396-6.466-5.11894-1.84789-1.421-3.28209-2.47317-4.30154-3.15544-.04168-.02269-.08126-.04855-.11978-.07704-.52766-.35195-.86854-.57568-1.02103-.67172.00422.00897.00422.01847 0 .02955-.00053.00211-.00158.00422-.00317.00633-.08812.17466-.1335.35354-.13561.53664.00845.50656.1525 1.0432.43269 1.60833v.00316c.26383.52608.7076 1.1862 1.33077 1.97983 1.82467 1.1086 4.94476 3.6488 9.35917 7.6221.2196.1989.3367.4469.352.7424.0158.2955-.076.5541-.2749.7752-.1979.2211-.4448.3398-.7393.3556-.296.0169-.5551-.0738-.7783-.2717-4.3622-3.9264-7.41-6.4091-9.14338-7.4475-.03694-.019-.07282-.0406-.10659-.0644-.23006-.1324-.41633-.2295-.5588-.2907-.00211.0823-.00316.1767-.00316.2839.00052.125.01583.2532.04537.3846.01267.0386.02322.0771.03219.1166.14195.467.42372.9662.84638 1.4986l-.00317-.0063c.54983.6801 1.3788 1.4848 2.48689 2.4156.65537.5467 1.60569 1.3208 2.85151 2.3218.00686.0079.01425.0153.02269.0227 1.11971.9561 1.82047 1.726 2.10227 2.309l.0031.0032c.9013 1.7387 1.4442 2.7745 1.6279 3.1074v.0032c.5962 1.0886 1.1593 2.0041 1.689 2.7449 1.2812 1.7914 2.7935 3.1111 4.538 3.9601 2.9734 1.0643 5.6397 2.7576 7.9994 5.0799 2.8657-.7994 5.0941-2.7919 6.6855-5.9779-.9851-.9583-1.5497-1.611-1.6922-1.9572l.0031.0127c-.4316-.8311-.8389-2.3798-1.2204-4.6445-.257-1.4838-.8797-3.1533-1.8669-5.0091-.0137-.0254-.0296-.0512-.0438-.0776zm-1.6374-8.0227-.0031-.0031c1.2157 1.9909 2.3987 4.3337 3.549 7.0274.0106.0206.0206.0407.0296.0613 1.1165 2.0958 1.8141 3.9828 2.0927 5.6613v.0037c.333 1.9629.6754 3.3074 1.0274 4.034l.0032.0126c.1672.2808.7666.9076 1.7988 1.8801.1651.1557.2712.3451.3166.5683.0459.2237.0221.4411-.0713.6522-2.0278 4.5237-5.0534 7.1984-9.0785 8.0221-.181.0375-.3598.0296-.5361-.0258-.1757-.0544-.3287-.1478-.459-.2808-1.5345-1.5866-3.2167-2.8699-5.0477-3.8498.0575.2374.1245.4992.2005.7846v.0032c.487 1.8373.1409 3.156-1.04 3.9564-.8464.7124-2.9576 1.1329-6.3331 1.2633-1.8114.0691-3.1311-.181-3.95957-.7493-1.08963-.6601-1.54501-1.706-1.36613-3.1391.18732-1.5112-.04802-2.6484-.70707-3.4108-.93081-.9767-2.05579-2.374-3.37496-4.1918-1.37246-1.898-2.28637-3.7628-2.74175-5.5943-.441128-1.7519-.769337-3.4842-.985152-5.1965-.2158155-1.6975-.1683252-3.3755.14247-5.035-.050128-.2533-.074928-.4997-.074401-.7398 0-.7223.076512-1.2157.229535-1.479l.003166-.01c.147746-.3879.405248-.66384.771972-.82636-.08442-.14722-.1583-.28758-.222672-.42002v.00316c-.443239-.89861-.660638-1.75343-.652195-2.56393-.002111-.52133.123473-1.02948.377809-1.52495l.003166-.00634c.372002-.71551.861682-1.11812 1.469552-1.20782-.03061-.19207-.04433-.35618-.04222-.49126 0-.73715.08179-1.23843.24537-1.50174.00053-.00264.00158-.00475.00317-.00686.24958-.65853.84796-.988317 1.79564-.988317.29075-.053294 1.11443.313957 2.47054 1.101767.02691-.45538.10236-.79044.22584-1.00468l.00316-.006328c.28072-.663276.83847-.99517822 1.67271-.99517822.41632-.07703928 2.23362.87064922 5.45182 2.84570622 2.0854 1.278 3.6114 2.1935 4.5796 2.74861-.0374-.68808.0101-1.35505.1425-2.00249v-.00581c.1857-.94874.7419-1.70436 1.6695-2.26685l-.0068.00633c.791-.603121 1.5877-.417911 2.3898.55563.4089.47332.8237 1.30492 1.2437 2.49375.7039 1.98508 1.6352 3.93217 2.7929 5.83858z" fill-rule="evenodd" transform="matrix(-1 0 0 1 35.66 0)"/></svg>