<svg height="40" viewBox="0 0 40 40" width="40" xmlns="http://www.w3.org/2000/svg"
     xmlns:xlink="http://www.w3.org/1999/xlink">
    <mask id="a">
        <path d="m40 20c0 11.0457-8.9543 20-20 20-11.04569 0-20-8.9543-20-20 0-11.04569 8.95431-20 20-20 11.0457 0 20 8.95431 20 20z"
              fill="#fff" transform="translate(2632 290)"/>
    </mask>
    <g mask="url(#a)" transform="translate(-2632 -290)">
        <path d="m38 20c0 9.9411-8.0589 18-18 18v4c12.1503 0 22-9.8497 22-22zm-18 18c-9.9411 0-18-8.0589-18-18h-4c0 12.1503 9.84974 22 22 22zm-18-18c0-9.9411 8.0589-18 18-18v-4c-12.15026 0-22 9.84974-22 22zm18-18c9.9411 0 18 8.0589 18 18h4c0-12.15026-9.8497-22-22-22z"
              transform="translate(2632 290)"/>
    </g>
</svg>
