<svg height="40" viewBox="0 0 25 40" width="25" xmlns="http://www.w3.org/2000/svg">
    <path d="m23.823 16.8176c.6209-.8279.9314-1.8111.8279-2.8461-.2587-2.9495-2.1216-10.19401-2.9495-13.195303-.1035-.465718-.5175-.7761969-.9832-.7761969h-16.76586c-.46572 0-.87969.3104789-.98318.7761969-.82794 3.053043-2.690815 10.245803-2.9495477 13.195303-.1034928 1.035.2069847 2.0182.8279427 2.8461 1.500645 1.9664 6.002585 6.0543 10.556245 6.5718v12.0052l-8.74512 2.0698c-.6727.1553-1.08668.7245-.98318 1.3972.05174.6727.62096 1.1384 1.29366 1.1384h18.99094c.6727 0 1.1902-.4657 1.2937-1.1384.0517-.6727-.3623-1.2419-.9832-1.3972l-8.7452-2.0698v-12.0052c4.3985-.621 8.8487-4.6572 10.2976-6.5718zm-11.4877 4.6054c-3.82927 0-8.27947-3.7775-9.83186-5.8473-.31048-.414-.46572-.9315-.41397-1.4489.20699-2.3804 1.65589-8.3312 2.69082-12.05694h15.16171c1.0349 3.77749 2.4838 9.72834 2.6908 12.05694.0518.5174-.1035 1.0349-.414 1.4489-1.6041 2.0181-6.0543 5.8473-9.8835 5.8473z"/>
</svg>
