<svg height="40" viewBox="0 0 44 40" width="44" xmlns="http://www.w3.org/2000/svg"><path d="m31.6985 8.12439c2.2434 0 4.062-1.8187 4.062-4.0622 0-2.24349-1.8186-4.06219-4.062-4.06219-2.2436 0-4.0623 1.8187-4.0623 4.06219 0 2.2435 1.8187 4.0622 4.0623 4.0622zm-15.938-4.0621c0 2.2435-1.8186 4.06219-4.062 4.06219-2.24365 0-4.06225-1.81869-4.06225-4.06219s1.8186-4.06219845 4.06225-4.06219845c2.2434 0 4.062 1.81869845 4.062 4.06219845zm5.938 13.75101-2.79-5.8264c-.5205-1.2362-2.1011-3.24917-4.8723-3.24917h-4.6751c-2.77173 0-4.35229 2.01297-4.87231 3.24917l-4.315189 9.0109c-.421142.8798-.049804 1.9341.830079 2.3554.87769.4218 1.93408.0498 2.35522-.8299l4.04786-8.4533v24.1637c0 .9756.79077 1.7658 1.76586 1.7658.97488 0 1.76558-.7907 1.76558-1.7658v-12.365h1.5193v12.3655c0 .9755.7908 1.7658 1.7659 1.7658.9749 0 1.7656-.7907 1.7656-1.7658v-24.1724l4.0484 8.4615c.3032.6336.9353 1.0036 1.594 1.0036.0214 0 .0429-.0004.0644-.0012.6826.0268 1.3491-.3468 1.6631-1.0025l4.0479-8.4533v24.1638c0 .9755.7907 1.7658 1.7658 1.7658.9749 0 1.7656-.7908 1.7656-1.7658v-12.3651h1.5193v12.3656c0 .9755.7908 1.7658 1.7659 1.7658.9749 0 1.7656-.7908 1.7656-1.7658v-24.1725l4.0484 8.4615c.3032.6336.9353 1.0036 1.594 1.0036.2553 0 .5151-.0561.7612-.1737.8804-.4212 1.2522-1.4756.8311-2.3553l-4.3152-9.011c-.5205-1.2362-2.1011-3.24913-4.8723-3.24913h-4.6751c-2.7717 0-4.3523 2.01293-4.8723 3.24913z" fill-rule="evenodd"/></svg>