<svg height="40" viewBox="0 0 32 40" width="32" xmlns="http://www.w3.org/2000/svg"><path d="m31.9204.808c0-.446222-.3622-.808-.808-.808h-25.85862c-.00178 0-.00356.00044441-.00534.00044441h-1.35511c-2.18311 0-3.89333011 1.78177559-3.89333011 4.05644559v32.32181c0 .0257.00444435.0497.00711102.0751-.00133334.04-.00577757.0786-.00577757.1191 0 1.9542 1.41155666 3.4271 3.28488666 3.4271h27.82578c.4458 0 .808-.3613.808-.8089v-5.2511c0-.0004 0-.0004 0-.0009 0 0 0-.0004 0-.0009v-33.1302zm-25.85818.808h24.24268v31.5151h-24.24268zm-2.16889.00089h.55156v31.51421h-1.10222-.056c-.61467 0-1.18267.1711-1.66978.4676v-29.54181c0-1.39067.97955-2.44 2.27644-2.44zm26.41107 36.76711h-27.01773c-.96712 0-1.66845-.7609-1.66845-1.8147 0-.0395.00311-.0777.00489-.1164l.10978-.4542c.27378-.716.81778-1.1756 1.46089-1.2356l.08844-.0084c.02178-.0027.04356-.0054.06-.0067h1.91111 25.05067v3.636z"/><path d="m16.9684.00000014h-16.161733c-.446222 0-.80666628.36266586-.80666628.80888786s.36044428.807552.80666628.807552h16.161733c.4458 0 .8076-.36133.8076-.807552s-.3618-.80888786-.8076-.80888786z" transform="translate(9.3 11.717)"/><path d="m16.9684-.00000064h-16.161733c-.446222 0-.80666628.36266664-.80666628.80888864 0 .445782.36044428.807552.80666628.807552h16.161733c.4458 0 .8076-.36177.8076-.807552 0-.446222-.3618-.80888864-.8076-.80888864z" transform="translate(9.3 15.757)"/><path d="m12.9271-.00000057h-12.120433c-.446222 0-.80666628.36266657-.80666628.80888857 0 .445782.36044428.808442.80666628.808442h12.120433c.4467 0 .8093-.36266.8093-.808442 0-.446222-.3626-.80888857-.8093-.80888857z" transform="translate(9.3 19.797)"/><path d="m.807556 1.61778h14.949344c.4453 0 .808-.36267.808-.808892s-.3627-.80888879-.808-.80888879h-14.949344c-.445778 0-.80755666.36266679-.80755666.80888879s.36177866.808892.80755666.808892z" transform="translate(8.89 35.958)"/></svg>