<svg height="40" viewBox="0 0 23 40" width="23" xmlns="http://www.w3.org/2000/svg"><path d="m3.82145 7.64291c2.11053 0 3.82146-1.71093 3.82146-3.82146s-1.71093-3.82145-3.82146-3.82145-3.82145 1.71092-3.82145 3.82145 1.71092 3.82146 3.82145 3.82146z" transform="translate(7.18 2.371)"/><path d="m21.0664.163884c-.8281-.397661-1.82-.046409-2.2158.780761l-4.0794 8.518305-.0337.07553c-.0473.10783-.4937 1.05192-1.5333 1.05192h-4.39748c-1.03965 0-1.486-.94409-1.52376-1.02826l-4.12311-8.617495c-.39584-.827625-1.38772-1.177512-2.2158-.780761-.82717.396295-1.177056 1.388176-.780761 2.215796l4.059411 8.47692c.3599.8545 1.25987 2.1007 2.74495 2.7031v24.7791c0 .9177.74391 1.6612 1.66117 1.6612.91725 0 1.66118-.7439 1.66118-1.6612v-11.6327h1.4296v11.6327c0 .9177.7439 1.6612 1.6611 1.6612.9173 0 1.6612-.7439 1.6612-1.6612v-24.7791c1.4851-.6024 2.3855-1.8486 2.7449-2.7031l4.0595-8.47692c.3972-.82762.0473-1.819501-.7799-2.215796z"/></svg>