<svg height="19" viewBox="0 0 42 19" width="42" xmlns="http://www.w3.org/2000/svg"><path d="m.947145-.320807c-.177177-.523094-.744858-.803513-1.267952-.626338-.523094.177177-.803513.744858-.626338 1.267952zm7.052835.320807.94715-.320807c-.13257-.391391-.49223-.66093-.90509-.678308-.41287-.017375-.7939.220982-.95889.599848zm8.00002 0 .9471-.320807c-.1326-.391391-.4922-.66093-.9051-.678308-.4128-.017375-.7939.220982-.9589.599848zm7.9999 0 .9472-.320807c-.1326-.391391-.4922-.66093-.9051-.678308-.4129-.017375-.7939.220982-.9589.599848zm8 0 .9472-.320807c-.1326-.391391-.4923-.660929-.9051-.678308-.4129-.017375-.7939.220982-.9589.599848zm8.9168.399267c.2206-.506354-.0112-1.095592-.5175-1.316102-.5064-.220505-1.0956.011214-1.3161.517568zm-40.9167-.399267c-.947145.320807-.946991.32126-.946834.321723.000058.000169.000219.000644.000334.000982.00013.00038.000477.001397.000738.002158.000319.000931.001111.003229.001757.005092.000881.002535.002858.008174.004654.01323.002745.007705.008305.023036.013972.038222.009541.025455.027385.071397.047507.120099.036243.08717.101403.232726.180918.387691.149315.288063.422409.733483.7762038 1.145363.7394362.84898 1.9627002 1.72099 3.7874102 1.72099v-2c-1.10862 0-1.81869-.50576-2.27925-1.034556-.2462-.277014-.38977-.520475-.50712-.7490823-.05382-.1033677-.084494-.1730887-.110751-.2366127-.011128-.026645-.016202-.039904-.021764-.054814-.001885-.004996-.001924-.005138-.00289-.007861-.000059-.000157.000457.001302.000495.001415-.000186-.000538.000815.002365.000725.002102-.000147-.000428.000553.001619.00048.001406.000087.000254.000227.000666.00027.000793.000143.000421.00029.000853-.946855.32166zm3.86666 3.75555c1.81374 0 3.09073-.86134 3.88526-1.68235.38572-.40302.6924-.83559.86733-1.120083.09277-.152038.1697-.293401.21373-.379314.02426-.047566.04574-.091849.0575-.116779.0069-.014687.0136-.02928.01698-.036745.00218-.004823.00455-.010113.00563-.012534.00077-.00175.00171-.003879.0021-.004754.00031-.000706.00072-.001639.00087-.001992.00014-.00031.00033-.000743.00039-.000898.00019-.000423.00037-.000834-.91647-.400101-.91683-.399267-.91666-.399657-.9165-.400038.00005-.000113.00021-.000483.00031-.00071-.00008.000185.00071-.001611.00055-.001239-.00009.000207.00096-.002189.00078-.001763.0001-.000228.0005-.00111.00032-.000719-.00134.002962-.00174.003842-.00434.009337-.00725.015435-.01442.030353-.0287.058134-.03305.064782-.07279.138695-.13835.2449905-.14174.2321765-.31839.4884875-.59933.7743605-.53881.556767-1.32848 1.073197-2.44806 1.073197zm4.13332-3.75555c-.94714.320807-.94699.32126-.94683.321723.00006.000169.00022.000644.00033.000982.00013.00038.00048.001397.00074.002158.00032.000931.00111.003229.00176.005092.00088.002536.00285.008174.00465.01323.00275.007705.00831.023036.01397.038222.00954.025455.02739.071397.04751.120099.03624.087171.1014.232726.18092.387692.14931.288062.42241.733482.7762 1.145362.73944.84898 1.96267 1.72099 3.78737 1.72099v-2c-1.1086 0-1.8186-.50576-2.27921-1.034556-.2462-.277014-.38977-.520475-.50712-.7490824-.05382-.1033676-.08449-.1730886-.11075-.2366126-.01113-.026645-.0162-.039904-.02176-.054814-.00189-.004996-.00193-.005138-.00289-.007861-.00006-.000157.00045.001302.00049.001415-.00018-.000538.00082.002365.00073.002102-.00015-.000428.00055.001619.00048.001406.00008.000254.00022.000666.00027.000793.00014.000421.00029.000853-.94686.32166zm3.86662 3.75555c1.8138 0 3.0908-.86134 3.8853-1.68235.3857-.40302.6924-.83559.8673-1.120083.0928-.152038.1697-.293401.2138-.379314.0242-.047566.0457-.091849.0575-.116779.0069-.014688.0136-.02928.0169-.036745.0022-.004823.0046-.010113.0057-.012534.0007-.00175.0017-.003879.0021-.004754.0003-.000706.0007-.001639.0008-.001992.0002-.00031.0004-.000744.0004-.000899.0002-.000422.0004-.000833-.9164-.4001-.9169-.399267-.9167-.399657-.9165-.400037 0-.000113.0002-.000484.0003-.000711-.0001.000185.0007-.001611.0005-.001239-.0001.000207.001-.002189.0008-.001763.0001-.000228.0005-.00111.0003-.000719-.0013.002962-.0017.003843-.0043.009337-.0073.015435-.0144.030353-.0287.058134-.0331.064782-.0728.138695-.1384.2449906-.1417.2321764-.3184.4884874-.5993.7743604-.5388.556767-1.3285 1.073197-2.4481 1.073197zm4.1334-3.75555c-.9472.320807-.947.32126-.9469.321723.0001.000169.0002.000644.0004.000982.0001.00038.0004.001397.0007.002158.0003.000931.0011.003229.0018.005092.0008.002536.0028.008174.0046.01323.0028.007705.0083.023036.014.038222.0095.025455.0274.071397.0475.120099.0362.087171.1014.232726.1809.387692.1493.288062.4224.733482.7762 1.145362.7394.84898 1.9627 1.72099 3.7874 1.72099v-2c-1.1086 0-1.8187-.50576-2.2792-1.034556-.2462-.277014-.3898-.520475-.5071-.7490824-.0539-.1033676-.0845-.1730886-.1108-.2366126-.0111-.026645-.0162-.039904-.0218-.054814-.0018-.004996-.0019-.005138-.0029-.007861 0-.000157.0005.001302.0005.001415-.0001-.000538.0009.002365.0008.002102-.0002-.000428.0005.001619.0004.001406.0001.000254.0003.000666.0003.000793.0002.000421.0003.000853-.9468.32166zm3.8666 3.75555c1.8138 0 3.0908-.86134 3.8853-1.68235.3857-.40302.6924-.83559.8673-1.120083.0928-.152038.1697-.293401.2137-.379314.0243-.047566.0458-.091849.0575-.116779.0069-.014688.0136-.02928.017-.036745.0022-.004823.0046-.010113.0056-.012534.0008-.00175.0018-.003879.0021-.004754.0004-.000706.0008-.001639.0009-.001992.0002-.00031.0003-.000744.0004-.000899.0002-.000422.0004-.000833-.9165-.4001-.9168-.399267-.9166-.399657-.9165-.400037.0001-.000113.0003-.000484.0004-.000711-.0001.000185.0007-.001611.0005-.001239-.0001.000207.001-.002189.0008-.001763.0001-.000228.0005-.00111.0003-.000719-.0013.002962-.0017.003843-.0043.009337-.0073.015435-.0145.030353-.0287.058134-.0331.064782-.0728.138695-.1384.2449906-.1417.2321764-.3184.4884874-.5993.7743604-.5388.556767-1.3285 1.073197-2.4481 1.073197zm4.1333-3.75555c-.9471.320807-.9469.321259-.9468.321723.0001.000168.0002.000643.0003.000981.0002.00038.0005.001397.0008.002159.0003.000931.0011.003228.0017.005092.0009.002535.0029.008173.0047.01323.0027.007705.0083.023035.014.038222.0095.025454.0274.071397.0475.120099.0362.08717.1014.232726.1809.387691.1493.288063.4224.733483.7762 1.145363.7394.84898 1.9627 1.72099 3.7874 1.72099v-2c-1.1086 0-1.8187-.50576-2.2792-1.034556-.2462-.277014-.3898-.520474-.5072-.749082-.0538-.103367-.0845-.173089-.1107-.236613-.0111-.026645-.0162-.039904-.0218-.054814-.0019-.004995-.0019-.005138-.0029-.00786 0-.000158.0005.001301.0005.001415-.0002-.000539.0008.002365.0007.002101-.0001-.000428.0006.001619.0005.001406.0001.000254.0003.000667.0003.000793.0001.000422.0003.000853-.9469.32166zm3.8667 3.75555c1.8137 0 3.0907-.86134 3.8853-1.68235.3857-.40302.6924-.83559.8673-1.120083.0928-.152038.1697-.293401.2137-.379314.0243-.047566.0458-.091849.0575-.116778.0069-.014688.0136-.029281.017-.036746.0022-.004823.0046-.010113.0056-.012534.0008-.00175.0017-.003879.0021-.004753.0003-.000706.0008-.00164.0009-.001992.0001-.00031.0003-.000744.0004-.000899.0002-.000422.0004-.000834-.9165-.400101-.9168-.399267-.9166-.399658-.9165-.400038.0001-.000113.0002-.000484.0003-.00071 0 .000185.0007-.001612.0006-.00124-.0001.000208.0009-.002188.0008-.001763.0001-.000228.0005-.00111.0003-.000719-.0014.002963-.0018.003843-.0044.009338-.0072.015435-.0144.030353-.0287.058134-.033.064781-.0727.138695-.1383.2449902-.1417.2321768-.3184.4884878-.5993.7743608-.5388.556767-1.3285 1.073197-2.4481 1.073197zm4.1333-3.75555c-.9471.320807-.947.321259-.9468.321723.0001.000168.0002.000643.0003.000981.0002.00038.0005.001397.0008.002159.0003.000931.0011.003228.0017.005092.0009.002535.0029.008173.0047.01323.0027.007705.0083.023035.0139.038222.0096.025454.0274.071397.0476.120099.0362.08717.1014.232726.1809.387691.1493.288063.4224.733483.7762 1.145363.7394.84898 1.9627 1.72099 3.7874 1.72099v-2c-1.1086 0-1.8187-.50576-2.2793-1.034556-.2462-.277014-.3897-.520474-.5071-.749082-.0538-.103367-.0845-.173089-.1107-.236613-.0112-.026645-.0162-.039904-.0218-.054814-.0019-.004995-.0019-.005138-.0029-.00786 0-.000158.0005.001301.0005.001415-.0002-.000539.0008.002365.0007.002101-.0001-.000428.0006.001619.0005.001406.0001.000254.0002.000667.0003.000793.0001.000422.0003.000853-.9469.32166zm3.8667 3.75555c1.8137 0 3.0907-.86134 3.8852-1.68235.3858-.40302.6924-.83559.8674-1.120083.0927-.152038.1697-.293401.2137-.379314.0243-.047566.0457-.091849.0575-.116778.0069-.014688.0136-.029281.017-.036746.0022-.004823.0045-.010113.0056-.012534.0008-.00175.0017-.003879.0021-.004753.0003-.000706.0007-.00164.0009-.001992.0001-.00031.0003-.000744.0004-.000899.0002-.000422.0003-.000834-.9165-.400101s-.9167-.399658-.9165-.400038c.0001-.000113.0002-.000484.0003-.00071-.0001.000185.0007-.001612.0006-.00124-.0001.000208.0009-.002188.0007-.001763.0001-.000228.0005-.00111.0004-.000719-.0014.002963-.0018.003843-.0044.009338-.0072.015435-.0144.030353-.0287.058134-.033.064781-.0728.138695-.1383.2449902-.1418.2321768-.3184.4884878-.5994.7743608-.5388.556767-1.3284 1.073197-2.448 1.073197z" transform="translate(1 1)"/><path d="m.947145-.320807c-.177177-.523093-.744859-.803513-1.267952-.626337-.523094.177177-.803513.744858-.626338 1.267952zm7.052835.32080768.94715-.32080768c-.13257-.391391-.49223-.660929-.90509-.678308-.41287-.017375-.7939.220983-.95889.599849zm8.00002 0 .9471-.32080768c-.1326-.391391-.4922-.660929-.9051-.678308-.4128-.017375-.7939.220983-.9589.599849zm7.9999 0 .9472-.32080668c-.1326-.391391-.4922-.66093-.9051-.678309-.4129-.017375-.7939.220983-.9589.599849zm8 0 .9472-.32080668c-.1326-.391391-.4923-.66093-.9051-.678309-.4129-.017375-.7939.220982-.9589.599848zm8.9168.39926732c.2206-.506354-.0112-1.095593-.5175-1.316102-.5064-.220506-1.0956.011214-1.3161.517567zm-40.9167-.39926732c-.947145.32080732-.946991.32126032-.946834.32172332.000058.000169.000219.000644.000334.000981.00013.000381.000477.001397.000738.002159.00032.000931.001111.003229.001757.005092.000881.002535.002858.008174.004654.01323.002745.007705.008305.023036.013972.038222.009542.025454.027385.071397.047507.120099.036243.08717.101403.232726.180918.387691.149316.288062.422409.733482.776204 1.145362.739436.84898 1.9627 1.72099 3.78741 1.72099v-2c-1.10862 0-1.81869-.50576-2.27925-1.034556-.2462-.277015-.38977-.520475-.50712-.7490821-.05382-.1033669-.084494-.1730889-.110751-.2366129-.011128-.026645-.016202-.039903-.021764-.054814-.001885-.004995-.001925-.005137-.00289-.00786-.000059-.000158.000457.001302.000495.001415-.000186-.000539.000815.002365.000725.002101-.000147-.000427.000553.001619.00048.001406.000087.000254.000227.000667.00027.000793.000143.000422.00029.000853-.946855.32166068zm3.86666 3.75554932c1.81374 0 3.09073-.86134 3.88526-1.68235.38572-.40302.6924-.83559.86733-1.120083.09277-.152037.1697-.293401.21373-.379313.02426-.047566.04574-.091849.0575-.116779.0069-.014688.0136-.02928.01698-.036745.00218-.004823.00455-.010113.00563-.012534.00077-.00175.00171-.003879.0021-.004754.00031-.000706.00072-.001639.00087-.001992.00014-.00031.00033-.000744.00039-.000899.00019-.000422.00037-.000833-.91647-.40010032-.91683-.39926668-.91666-.39965768-.9165-.40003768.00005-.000113.00021-.000484.00031-.00071-.00008.000185.00071-.001612.00055-.00124-.00009.000208.00096-.002189.00078-.001763.0001-.000228.0005-.00111.00032-.000719-.00134.002963-.00174.003843-.00434.009337-.00725.015435-.01442.030353-.0287.058135-.03305.064781-.07279.138695-.13835.2449897-.14174.2321763-.31839.4884873-.59933.7743603-.53881.556767-1.32848 1.073197-2.44806 1.073197zm4.13332-3.75554932c-.94714.32080732-.94699.32126032-.94683.32172332.00006.000169.00022.000644.00033.000982.00013.00038.00048.001397.00074.002158.00032.000931.00111.003229.00176.005092.00088.002535.00285.008174.00465.01323.00275.007705.00831.023036.01397.038222.00954.025455.02739.071397.04751.120099.03624.08717.1014.232726.18092.387691.14931.288062.42241.733482.7762 1.145362.73944.84898 1.96267 1.72099 3.78737 1.72099v-2c-1.1086 0-1.8186-.50576-2.27921-1.034557-.2462-.277014-.38977-.520474-.50712-.7490812-.05382-.1033668-.08449-.1730888-.11075-.2366128-.01113-.026645-.0162-.039904-.02176-.054814-.00189-.004995-.00193-.005138-.00289-.00786-.00006-.000158.00045.001301.00049.001415-.00018-.000539.00082.002365.00073.002101-.00015-.000428.00055.001619.00048.001406.00008.000254.00022.000667.00027.000793.00014.000422.00029.000853-.94686.32166068zm3.86662 3.75554932c1.8138 0 3.0908-.86134 3.8853-1.68235.3857-.40302.6924-.83559.8673-1.120083.0928-.152037.1697-.293401.2138-.379314.0242-.047565.0457-.091848.0575-.116778.0069-.014688.0136-.02928.0169-.036746.0022-.004822.0046-.010112.0057-.012533.0007-.00175.0017-.003879.0021-.004754.0003-.000706.0007-.001639.0008-.001992.0002-.00031.0004-.000744.0004-.000899.0002-.000422.0004-.000833-.9164-.40010032-.9169-.39926668-.9167-.39965768-.9165-.40003768 0-.000113.0002-.000484.0003-.00071-.0001.000185.0007-.001612.0005-.00124-.0001.000208.001-.002188.0008-.001763.0001-.000228.0005-.00111.0003-.000719-.0013.002963-.0017.003843-.0043.009338-.0073.015434-.0144.030353-.0287.058134-.0331.064781-.0728.138695-.1384.2449898-.1417.2321762-.3184.4884872-.5993.7743602-.5388.556767-1.3285 1.073197-2.4481 1.073197zm4.1334-3.75554932c-.9472.32080732-.947.32126032-.9469.32172332.0001.000169.0002.000644.0004.000982.0001.00038.0004.001397.0007.002158.0003.000931.0011.003229.0018.005092.0008.002535.0028.008174.0046.01323.0028.007705.0083.023036.014.038222.0095.025455.0274.071397.0475.120099.0362.08717.1014.232726.1809.387691.1493.288062.4224.733482.7762 1.145362.7394.84898 1.9627 1.72099 3.7874 1.72099v-2c-1.1086 0-1.8187-.50576-2.2792-1.034557-.2462-.277014-.3898-.520474-.5071-.7490812-.0539-.1033668-.0845-.1730888-.1108-.2366128-.0111-.026645-.0162-.039904-.0218-.054814-.0018-.004995-.0019-.005138-.0029-.00786 0-.000158.0005.001301.0005.001415-.0001-.000539.0009.002365.0008.002101-.0002-.000428.0005.001619.0004.001406.0001.000254.0003.000667.0003.000793.0002.000422.0003.000853-.9468.32166068zm3.8666 3.75554932c1.8138 0 3.0908-.86134 3.8853-1.68235.3857-.40302.6924-.83559.8673-1.120083.0928-.152037.1697-.293401.2137-.379314.0243-.047565.0458-.091848.0575-.116778.0069-.014688.0136-.02928.017-.036746.0022-.004822.0046-.010112.0056-.012533.0008-.00175.0018-.003879.0021-.004754.0004-.000706.0008-.001639.0009-.001992.0002-.00031.0003-.000744.0004-.000899.0002-.000422.0004-.000833-.9165-.40010032-.9168-.39926668-.9166-.39965768-.9165-.40003768.0001-.000113.0003-.000484.0004-.00071-.0001.000185.0007-.001612.0005-.00124-.0001.000208.001-.002188.0008-.001763.0001-.000228.0005-.00111.0003-.000719-.0013.002963-.0017.003843-.0043.009338-.0073.015434-.0145.030353-.0287.058134-.0331.064781-.0728.138695-.1384.2449898-.1417.2321762-.3184.4884872-.5993.7743602-.5388.556767-1.3285 1.073197-2.4481 1.073197zm4.1333-3.75554932c-.9471.32080632-.9469.32125932-.9468.32172332.0001.000168.0002.000643.0003.000981.0002.00038.0005.001397.0008.002159.0003.00093.0011.003228.0017.005091.0009.002536.0029.008174.0047.013231.0027.007704.0083.023035.014.038222.0095.025454.0274.071397.0475.120099.0362.08717.1014.232725.1809.387691.1493.288062.4224.733482.7762 1.145362.7394.84898 1.9627 1.72099 3.7874 1.72099v-2c-1.1086 0-1.8187-.50576-2.2792-1.034556-.2462-.277014-.3898-.520474-.5072-.7490818-.0538-.1033672-.0845-.1730892-.1107-.2366122-.0111-.026645-.0162-.039904-.0218-.054814-.0019-.004996-.0019-.005138-.0029-.007861 0-.000157.0005.001302.0005.001415-.0002-.000538.0008.002365.0007.002102-.0001-.000428.0006.001619.0005.001406.0001.000254.0003.000666.0003.000793.0001.000421.0003.000853-.9469.32165968zm3.8667 3.75554932c1.8137 0 3.0907-.86134 3.8853-1.68235.3857-.40302.6924-.83559.8673-1.120082.0928-.152038.1697-.293401.2137-.379314.0243-.047566.0458-.091849.0575-.116779.0069-.014687.0136-.02928.017-.036745.0022-.004823.0046-.010113.0056-.012534.0008-.00175.0017-.003879.0021-.004754.0003-.000705.0008-.001639.0009-.001991.0001-.000311.0003-.000744.0004-.000899.0002-.000422.0004-.000834-.9165-.40010132-.9168-.39926768-.9166-.39965768-.9165-.40003768.0001-.000113.0002-.000484.0003-.000711 0 .000185.0007-.001611.0006-.001239-.0001.000207.0009-.002189.0008-.001763.0001-.000228.0005-.00111.0003-.000719-.0014.002962-.0018.003843-.0044.009337-.0072.015435-.0144.030353-.0287.058134-.033.064782-.0727.138695-.1383.2449904-.1417.2321766-.3184.4884876-.5993.7743606-.5388.556767-1.3285 1.073197-2.4481 1.073197zm4.1333-3.75554932c-.9471.32080632-.947.32125932-.9468.32172332.0001.000168.0002.000643.0003.000981.0002.00038.0005.001397.0008.002159.0003.00093.0011.003228.0017.005091.0009.002536.0029.008174.0047.013231.0027.007704.0083.023035.0139.038222.0096.025454.0274.071397.0476.120099.0362.08717.1014.232725.1809.387691.1493.288062.4224.733482.7762 1.145362.7394.84898 1.9627 1.72099 3.7874 1.72099v-2c-1.1086 0-1.8187-.50576-2.2793-1.034556-.2462-.277014-.3897-.520474-.5071-.7490818-.0538-.1033672-.0845-.1730892-.1107-.2366122-.0112-.026645-.0162-.039904-.0218-.054814-.0019-.004996-.0019-.005138-.0029-.007861 0-.000157.0005.001302.0005.001415-.0002-.000538.0008.002365.0007.002102-.0001-.000428.0006.001619.0005.001406.0001.000254.0002.000666.0003.000793.0001.000421.0003.000853-.9469.32165968zm3.8667 3.75554932c1.8137 0 3.0907-.86134 3.8852-1.68235.3858-.40302.6924-.83559.8674-1.120082.0927-.152038.1697-.293401.2137-.379314.0243-.047566.0457-.091849.0575-.116779.0069-.014687.0136-.02928.017-.036745.0022-.004823.0045-.010113.0056-.012534.0008-.00175.0017-.003879.0021-.004754.0003-.000705.0007-.001639.0009-.001991.0001-.000311.0003-.000744.0004-.000899.0002-.000422.0003-.000834-.9165-.40010132-.9168-.39926768-.9167-.39965768-.9165-.40003768.0001-.000113.0002-.000484.0003-.000711-.0001.000185.0007-.001611.0006-.001239-.0001.000207.0009-.002189.0007-.001763.0001-.000228.0005-.00111.0004-.000719-.0014.002962-.0018.003843-.0044.009337-.0072.015435-.0144.030353-.0287.058134-.033.064782-.0728.138695-.1383.2449904-.1418.2321766-.3184.4884876-.5994.7743606-.5388.556767-1.3284 1.073197-2.448 1.073197z" transform="translate(1 7.844)"/><path d="m.947145-.320807c-.177177-.523094-.744858-.803513-1.267952-.626338-.523094.177177-.803513.744858-.626338 1.267952zm7.052835.32080666.94715-.32080666c-.13257-.391392-.49223-.66093-.90509-.678309-.41287-.017374-.7939.220983-.95889.599849zm8.00002 0 .9471-.32080666c-.1326-.391392-.4922-.66093-.9051-.678309-.4128-.017374-.7939.220983-.9589.599849zm7.9999 0 .9472-.32080666c-.1326-.391391-.4922-.66093-.9051-.678309-.4129-.017374-.7939.220983-.9589.599849zm8 0 .9472-.32080666c-.1326-.391391-.4923-.66093-.9051-.678309-.4129-.017374-.7939.220983-.9589.599849zm8.9168.39926734c.2206-.506354-.0112-1.095593-.5175-1.316102-.5064-.220505-1.0956.011214-1.3161.517568zm-40.9167-.39926734c-.947145.32080734-.946991.32125934-.946834.32172334.000058.000168.000219.000644.000334.000981.00013.000381.000477.001397.000738.002159.000319.000931.001111.003228.001757.005092.000881.002535.002858.008173.004654.01323.002745.007705.008305.023035.013972.038222.009541.025454.027385.071397.047507.120099.036243.08717.101403.232726.180918.387691.149315.288063.422409.733483.7762038 1.145363.7394362.84898 1.9627002 1.72099 3.7874102 1.72099v-2c-1.10862 0-1.81869-.50576-2.27925-1.034556-.2462-.277015-.38977-.520475-.50712-.7490826-.05382-.1033674-.084494-.1730894-.110751-.2366124-.011128-.026646-.016202-.039904-.021764-.054814-.001885-.004996-.001924-.005138-.00289-.007861-.000059-.000157.000457.001302.000495.001415-.000186-.000539.000815.002365.000725.002101-.000147-.000427.000553.001619.00048.001407.000087.000254.000227.000666.00027.000793.000143.000421.00029.000853-.946855.32165966zm3.86666 3.75555034c1.81374 0 3.09073-.86134 3.88526-1.68235.38572-.40302.6924-.83559.86733-1.120084.09277-.152037.1697-.293401.21373-.379314.02426-.047565.04574-.091849.0575-.116778.0069-.014688.0136-.029281.01698-.036746.00218-.004822.00455-.010113.00563-.012534.00077-.00175.00171-.003878.0021-.004753.00031-.000706.00072-.001639.00087-.001992.00014-.00031.00033-.000744.00039-.000899.00019-.000422.00037-.000834-.91647-.40010034-.91683-.39926666-.91666-.39965766-.9165-.40003766.00005-.000113.00021-.000484.00031-.00071-.00008.000185.00071-.001612.00055-.00124-.00009.000208.00096-.002188.00078-.001763.0001-.000228.0005-.00111.00032-.000719-.00134.002963-.00174.003843-.00434.009338-.00725.015435-.01442.030353-.0287.058134-.03305.064781-.07279.138695-.13835.2449902-.14174.2321768-.31839.4884878-.59933.7743608-.53881.556767-1.32848 1.073197-2.44806 1.073197zm4.13332-3.75555034c-.94714.32080734-.94699.32126034-.94683.32172334.00006.000169.00022.000644.00033.000981.00013.000381.00048.001397.00074.002159.00032.000931.00111.003228.00176.005092.00088.002535.00285.008174.00465.01323.00275.007705.00831.023035.01397.038222.00954.025454.02739.071397.04751.120099.03624.08717.1014.232726.18092.387691.14931.288063.42241.733483.7762 1.145363.73944.84898 1.96267 1.72099 3.78737 1.72099v-2c-1.1086 0-1.8186-.50576-2.27921-1.034556-.2462-.277015-.38977-.520475-.50712-.7490827-.05382-.1033673-.08449-.1730893-.11075-.2366133-.01113-.026645-.0162-.039903-.02176-.054813-.00189-.004996-.00193-.005138-.00289-.007861-.00006-.000158.00045.001302.00049.001415-.00018-.000539.00082.002365.00073.002101-.00015-.000427.00055.001619.00048.001407.00008.000254.00022.000666.00027.000792.00014.000422.00029.000854-.94686.32166066zm3.86662 3.75555034c1.8138 0 3.0908-.86134 3.8853-1.68235.3857-.40302.6924-.83559.8673-1.120084.0928-.152037.1697-.293401.2138-.379314.0242-.047566.0457-.091849.0575-.116778.0069-.014688.0136-.029281.0169-.036746.0022-.004822.0046-.010113.0057-.012534.0007-.00175.0017-.003878.0021-.004753.0003-.000706.0007-.00164.0008-.001992.0002-.00031.0004-.000744.0004-.000899.0002-.000422.0004-.000834-.9164-.40010034-.9169-.39926666-.9167-.39965766-.9165-.40003766 0-.000113.0002-.000484.0003-.00071-.0001.000185.0007-.001612.0005-.00124-.0001.000208.001-.002188.0008-.001763.0001-.000228.0005-.00111.0003-.000718-.0013.002962-.0017.003842-.0043.009337-.0073.015435-.0144.030353-.0287.058134-.0331.064781-.0728.138695-.1384.2449903-.1417.2321767-.3184.4884877-.5993.7743607-.5388.556767-1.3285 1.073197-2.4481 1.073197zm4.1334-3.75555034c-.9472.32080734-.947.32126034-.9469.32172334.0001.000169.0002.000644.0004.000981.0001.000381.0004.001397.0007.002159.0003.000931.0011.003228.0018.005092.0008.002535.0028.008174.0046.01323.0028.007705.0083.023035.014.038222.0095.025454.0274.071397.0475.120099.0362.08717.1014.232726.1809.387691.1493.288063.4224.733483.7762 1.145363.7394.84898 1.9627 1.72099 3.7874 1.72099v-2c-1.1086 0-1.8187-.50576-2.2792-1.034556-.2462-.277015-.3898-.520475-.5071-.7490827-.0539-.1033673-.0845-.1730893-.1108-.2366133-.0111-.026645-.0162-.039903-.0218-.054813-.0018-.004996-.0019-.005138-.0029-.007861 0-.000158.0005.001302.0005.001415-.0001-.000539.0009.002365.0008.002101-.0002-.000427.0005.001619.0004.001407.0001.000254.0003.000666.0003.000792.0002.000422.0003.000854-.9468.32166066zm3.8666 3.75555034c1.8138 0 3.0908-.86134 3.8853-1.68235.3857-.40302.6924-.83559.8673-1.120084.0928-.152037.1697-.293401.2137-.379314.0243-.047566.0458-.091849.0575-.116778.0069-.014688.0136-.029281.017-.036746.0022-.004822.0046-.010113.0056-.012534.0008-.00175.0018-.003878.0021-.004753.0004-.000706.0008-.00164.0009-.001992.0002-.00031.0003-.000744.0004-.000899.0002-.000422.0004-.000834-.9165-.40010034-.9168-.39926666-.9166-.39965766-.9165-.40003766.0001-.000113.0003-.000484.0004-.00071-.0001.000185.0007-.001612.0005-.00124-.0001.000208.001-.002188.0008-.001763.0001-.000228.0005-.00111.0003-.000718-.0013.002962-.0017.003842-.0043.009337-.0073.015435-.0145.030353-.0287.058134-.0331.064781-.0728.138695-.1384.2449903-.1417.2321767-.3184.4884877-.5993.7743607-.5388.556767-1.3285 1.073197-2.4481 1.073197zm4.1333-3.75555034c-.9471.32080634-.9469.32125934-.9468.32172234.0001.000169.0002.000644.0003.000982.0002.00038.0005.001397.0008.002158.0003.000931.0011.003229.0017.005092.0009.002536.0029.008174.0047.01323.0027.007705.0083.023036.014.038223.0095.025454.0274.071396.0475.120098.0362.087171.1014.232726.1809.387692.1493.288053.4224.733483.7762 1.145353.7394.84899 1.9627 1.721 3.7874 1.721v-2c-1.1086 0-1.8187-.50576-2.2792-1.034556-.2462-.277014-.3898-.520475-.5072-.7490823-.0538-.1033677-.0845-.1730887-.1107-.2366127-.0111-.026645-.0162-.039904-.0218-.054814-.0019-.004996-.0019-.005138-.0029-.007861 0-.000157.0005.001302.0005.001416-.0002-.000539.0008.002364.0007.002101-.0001-.000428.0006.001619.0005.001406.0001.000254.0003.000666.0003.000793.0001.000421.0003.000853-.9469.32165966zm3.8667 3.75555034c1.8137 0 3.0907-.86134 3.8853-1.68235.3857-.40302.6924-.83559.8673-1.120083.0928-.152038.1697-.293401.2137-.379314.0243-.047566.0458-.091849.0575-.116779.0069-.014687.0136-.02928.017-.036745.0022-.004823.0046-.010113.0056-.012534.0008-.00175.0017-.003879.0021-.004754.0003-.000706.0008-.001639.0009-.001992.0001-.00031.0003-.000743.0004-.000898.0002-.000423.0004-.000834-.9165-.40010134-.9168-.39926666-.9166-.39965766-.9165-.40003766.0001-.000113.0002-.000484.0003-.00071 0 .000185.0007-.001612.0006-.00124-.0001.000207.0009-.002189.0008-.001763.0001-.000228.0005-.00111.0003-.000719-.0014.002962-.0018.003843-.0044.009337-.0072.015435-.0144.030353-.0287.058135-.033.064781-.0727.138695-.1383.2449899-.1417.2321761-.3184.4884881-.5993.7743611-.5388.556767-1.3285 1.073197-2.4481 1.073197zm4.1333-3.75555034c-.9471.32080634-.947.32125934-.9468.32172234.0001.000169.0002.000644.0003.000982.0002.00038.0005.001397.0008.002158.0003.000931.0011.003229.0017.005092.0009.002536.0029.008174.0047.01323.0027.007705.0083.023036.0139.038223.0096.025454.0274.071396.0476.120098.0362.087171.1014.232726.1809.387692.1493.288053.4224.733483.7762 1.145353.7394.84899 1.9627 1.721 3.7874 1.721v-2c-1.1086 0-1.8187-.50576-2.2793-1.034556-.2462-.277014-.3897-.520475-.5071-.7490823-.0538-.1033677-.0845-.1730887-.1107-.2366127-.0112-.026645-.0162-.039904-.0218-.054814-.0019-.004996-.0019-.005138-.0029-.007861 0-.000157.0005.001302.0005.001416-.0002-.000539.0008.002364.0007.002101-.0001-.000428.0006.001619.0005.001406.0001.000254.0002.000666.0003.000793.0001.000421.0003.000853-.9469.32165966zm3.8667 3.75555034c1.8137 0 3.0907-.86134 3.8852-1.68235.3858-.40302.6924-.83559.8674-1.120083.0927-.152038.1697-.293401.2137-.379314.0243-.047566.0457-.091849.0575-.116779.0069-.014687.0136-.02928.017-.036745.0022-.004823.0045-.010113.0056-.012534.0008-.00175.0017-.003879.0021-.004754.0003-.000706.0007-.001639.0009-.001992.0001-.00031.0003-.000743.0004-.000898.0002-.000423.0003-.000834-.9165-.40010134-.9168-.39926666-.9167-.39965766-.9165-.40003766.0001-.000113.0002-.000484.0003-.00071-.0001.000185.0007-.001612.0006-.00124-.0001.000207.0009-.002189.0007-.001763.0001-.000228.0005-.00111.0004-.000719-.0014.002962-.0018.003843-.0044.009337-.0072.015435-.0144.030353-.0287.058135-.033.064781-.0728.138695-.1383.2449899-.1418.2321761-.3184.4884881-.5994.7743611-.5388.556767-1.3284 1.073197-2.448 1.073197z" transform="translate(1 14.689)"/></svg>
