<svg height="20" viewBox="0 0 40 20" width="40" xmlns="http://www.w3.org/2000/svg"><path d="m0 9.6774c0-5.33731 4.34009-9.6774 9.67749-9.6774 5.33711 0 9.67721 4.34009 9.67721 9.6774 0 5.3373-4.3401 9.6774-9.67721 9.6774-5.3374 0-9.67749-4.3401-9.67749-9.6774zm18.1111 0c0-4.66519-3.7686-8.43378-8.43361-8.43378-4.66528 0-8.43384 3.76859-8.43384 8.43378 0 4.6652 3.76856 8.4338 8.43384 8.4338 4.66501 0 8.43361-3.7686 8.43361-8.4338zm-10.39748-.8613c.36939-.36926.57691-.87012.57691-1.39233 0-.52225-.20752-1.02307-.57691-1.39237-.36914-.36926-.87011-.57672-1.39233-.57672s-1.02295.20746-1.39233.57672c-.36915.3693-.57667.87012-.57667 1.39237 0 .52221.20752 1.02307.57667 1.39233.36938.36926.87011.57672 1.39233.57672s1.02319-.20746 1.39233-.57672zm7.30178-1.36645c0 .52221-.2075 1.02307-.5769 1.39233-.3692.36926-.8701.57672-1.3924.57672-.5222 0-1.0229-.20746-1.3923-.57672-.3691-.36926-.5767-.87012-.5767-1.39233 0-.52225.2076-1.02308.5767-1.39237.3694-.36926.8701-.57672 1.3923-.57672.5223 0 1.0232.20746 1.3924.57672.3694.36929.5769.87012.5769 1.39237zm-5.32106 7.07635c1.85176-.0081 3.50516-1.1836 4.15156-2.9669l1.1692.4238c-.8193 2.26-2.9392 3.7758-5.31539 3.7864-2.37647.0104-4.50904-1.4871-5.34742-3.7399l1.16553-.4335c.66138 1.7775 2.32471 2.9383 4.17652 2.9301zm20.62846-14.526c-5.3374 0-9.6775 4.34009-9.6775 9.6774 0 5.3373 4.3401 9.6774 9.6775 9.6774 5.3371 0 9.6772-4.3401 9.6772-9.6774 0-5.33731-4.3401-9.6774-9.6772-9.6774zm0 1.24362c4.665 0 8.4335 3.76859 8.4335 8.43378 0 4.6652-3.7685 8.4338-8.4335 8.4338-4.6653 0-8.4339-3.7686-8.4339-8.4338 0-4.66519 3.7686-8.43378 8.4339-8.43378zm-1.9639 7.57248c.3694-.36926.5769-.87012.5769-1.39233 0-.52225-.2075-1.02307-.5769-1.39237-.3692-.36926-.8701-.57672-1.3923-.57672-.5223 0-1.023.20746-1.3924.57672-.3691.3693-.5766.87012-.5766 1.39237 0 .52221.2075 1.02307.5766 1.39233.3694.36926.8701.57672 1.3924.57672.5222 0 1.0231-.20746 1.3923-.57672zm7.3013-1.36645c0 .52221-.2076 1.02307-.5769 1.39233-.3692.36926-.8702.57672-1.3924.57672s-1.0229-.20746-1.3923-.57672c-.3692-.36926-.5767-.87012-.5767-1.39233 0-.52225.2075-1.02308.5767-1.39237.3694-.36926.8701-.57672 1.3923-.57672s1.0232.20746 1.3924.57672c.3693.36929.5769.87012.5769 1.39237zm-5.3206 7.07635c1.8518-.0081 3.5051-1.1836 4.1516-2.9669l1.1692.4238c-.8193 2.26-2.9392 3.7758-5.3154 3.7864-2.3765.0104-4.5091-1.4871-5.3474-3.7399l1.1655-.4335c.6614 1.7775 2.3247 2.9383 4.1765 2.9301z" fill-rule="evenodd"/></svg>